# xmcd
#
# Track frame offsets:
#	150
#	17048
#	35378
#	52910
#	75055
#	92908
#	114645
#	127448
#	144008
#	164910
#	182483
#	204528
#	221270
#	244705
#
# Disc length: 3462 seconds
#
# Revision: 0
# Processed by: cddbd v1.5.2PL0 Copyright (c) Steve Scherf et al.
# Submitted via: audiograbber 1.83.01
#
DISCID=b80d840e
DTITLE=Various Artist - Hot Hits - Country - Volume 46
DYEAR=1900
DGENRE=
TTITLE0=Matry Stuart - if I Ain't Got You
TTITLE1=Daryle Singletary - I Let Her Lie
TTITLE2=Faith Hill - Let's Go To Vegas
TTITLE3=Bryan White - Someone Else's Star
TTITLE4=Trisha Yearwood - I Wanna Go Too Far
TTITLE5=John Berry - I Think About It All The Time
TTITLE6=Patty Loveless - Halfway Down 
TTITLE7=4-Runner - A Heart With 4 Wheel Drive
TTITLE8=Shelby Lynne - Slow Me Down
TTITLE9=Russ Taff - Bein' Happy
TTITLE10=Kim Richey - Just My Luck
TTITLE11=Brett James - Female Bonding
TTITLE12=Doug Stone - Soemtimes I Forget
TTITLE13=Jeff Foxworthy - Party All Night
EXTD=
EXTT0=
EXTT1=
EXTT2=
EXTT3=
EXTT4=
EXTT5=
EXTT6=
EXTT7=
EXTT8=
EXTT9=
EXTT10=
EXTT11=
EXTT12=
EXTT13=
PLAYORDER=
